<svg width="21" height="13" viewBox="0 0 21 13" fill="none" xmlns="http://www.w3.org/2000/svg">
<g clip-path="url(#clip0_734_572)">
<path d="M9.5 2.5H19.5C19.7652 2.5 20.0196 2.39464 20.2071 2.20711C20.3946 2.01957 20.5 1.76522 20.5 1.5C20.5 1.23478 20.3946 0.980429 20.2071 0.792892C20.0196 0.605356 19.7652 0.5 19.5 0.5H9.5C9.23478 0.5 8.98043 0.605356 8.79289 0.792892C8.60536 0.980429 8.5 1.23478 8.5 1.5C8.5 1.76522 8.60536 2.01957 8.79289 2.20711C8.98043 2.39464 9.23478 2.5 9.5 2.5ZM19.5 10.5H1.5C1.23478 10.5 0.980429 10.6054 0.792892 10.7929C0.605356 10.9804 0.5 11.2348 0.5 11.5C0.5 11.7652 0.605356 12.0196 0.792892 12.2071C0.980429 12.3946 1.23478 12.5 1.5 12.5H19.5C19.7652 12.5 20.0196 12.3946 20.2071 12.2071C20.3946 12.0196 20.5 11.7652 20.5 11.5C20.5 11.2348 20.3946 10.9804 20.2071 10.7929C20.0196 10.6054 19.7652 10.5 19.5 10.5ZM1.5 7.5H19.5C19.7652 7.5 20.0196 7.39464 20.2071 7.20711C20.3946 7.01957 20.5 6.76522 20.5 6.5C20.5 6.23478 20.3946 5.98043 20.2071 5.79289C20.0196 5.60536 19.7652 5.5 19.5 5.5H1.5C1.23478 5.5 0.980429 5.60536 0.792892 5.79289C0.605356 5.98043 0.5 6.23478 0.5 6.5C0.5 6.76522 0.605356 7.01957 0.792892 7.20711C0.980429 7.39464 1.23478 7.5 1.5 7.5Z" fill="url(#paint0_linear_734_572)"/>
</g>
<defs>
<linearGradient id="paint0_linear_734_572" x1="0.5" y1="0.5" x2="11.0882" y2="18.1471" gradientUnits="userSpaceOnUse">
<stop stop-color="#5CB8E4"/>
<stop offset="1" stop-color="#8758FF"/>
</linearGradient>
<clipPath id="clip0_734_572">
<rect width="20" height="12" fill="white" transform="translate(0.5 0.5)"/>
</clipPath>
</defs>
</svg>
